<mxfile host="app.diagrams.net" modified="2023-05-30T10:08:30.367Z" agent="Mozilla/5.0 (Windows NT 10.0; Win64; x64) AppleWebKit/537.36 (KHTML, like Gecko) Chrome/113.0.0.0 Safari/537.36" etag="nEnO9qCwEv6m5byl4Qtt" version="21.3.5" type="github">
  <diagram name="第 1 页" id="2WxbIfszBEAQkARuXxff">
    <mxGraphModel dx="1562" dy="773" grid="1" gridSize="10" guides="1" tooltips="1" connect="1" arrows="1" fold="1" page="1" pageScale="1" pageWidth="827" pageHeight="1169" math="0" shadow="0">
      <root>
        <mxCell id="0" />
        <mxCell id="1" parent="0" />
        <mxCell id="8Ea1DOQOPBiHnEWVSRmq-1" value="" style="rounded=0;whiteSpace=wrap;html=1;fillColor=#dae8fc;strokeColor=#6c8ebf;" parent="1" vertex="1">
          <mxGeometry x="130" y="170" width="560" height="420" as="geometry" />
        </mxCell>
        <mxCell id="8Ea1DOQOPBiHnEWVSRmq-2" value="Hardware" style="rounded=0;whiteSpace=wrap;html=1;" parent="1" vertex="1">
          <mxGeometry x="154" y="480" width="520" height="50" as="geometry" />
        </mxCell>
        <mxCell id="8Ea1DOQOPBiHnEWVSRmq-3" value="Linux&amp;nbsp;" style="rounded=0;whiteSpace=wrap;html=1;" parent="1" vertex="1">
          <mxGeometry x="154" y="410" width="520" height="50" as="geometry" />
        </mxCell>
        <mxCell id="8Ea1DOQOPBiHnEWVSRmq-4" value="Docker Engine" style="rounded=0;whiteSpace=wrap;html=1;" parent="1" vertex="1">
          <mxGeometry x="154" y="340" width="236" height="50" as="geometry" />
        </mxCell>
        <mxCell id="8Ea1DOQOPBiHnEWVSRmq-5" value="Bin/libs" style="rounded=0;whiteSpace=wrap;html=1;" parent="1" vertex="1">
          <mxGeometry x="154" y="260" width="236" height="50" as="geometry" />
        </mxCell>
        <mxCell id="8Ea1DOQOPBiHnEWVSRmq-6" value="APPs" style="rounded=0;whiteSpace=wrap;html=1;" parent="1" vertex="1">
          <mxGeometry x="154" y="190" width="236" height="50" as="geometry" />
        </mxCell>
        <mxCell id="8Ea1DOQOPBiHnEWVSRmq-7" value="Docker Client" style="rounded=0;whiteSpace=wrap;html=1;" parent="1" vertex="1">
          <mxGeometry x="500" y="190" width="166" height="200" as="geometry" />
        </mxCell>
        <mxCell id="8Ea1DOQOPBiHnEWVSRmq-8" value="&lt;b&gt;Docker容器架构&lt;/b&gt;" style="text;strokeColor=none;align=center;fillColor=none;html=1;verticalAlign=middle;whiteSpace=wrap;rounded=0;" parent="1" vertex="1">
          <mxGeometry x="354" y="550" width="116" height="30" as="geometry" />
        </mxCell>
      </root>
    </mxGraphModel>
  </diagram>
</mxfile>
